<?xml version="1.0" standalone="no"?>
<!DOCTYPE svg PUBLIC "-//W3C//DTD SVG 20010904//EN"
 "http://www.w3.org/TR/2001/REC-SVG-20010904/DTD/svg10.dtd">
<svg version="1.0" xmlns="http://www.w3.org/2000/svg"
 width="512.000000pt" height="512.000000pt" viewBox="0 0 512.000000 512.000000"
 preserveAspectRatio="xMidYMid meet">

<g transform="translate(0.000000,512.000000) scale(0.100000,-0.100000)"
fill="#000000" stroke="none">
<path d="M2120 4850 c-807 -108 -1451 -763 -1545 -1571 -6 -55 -7 -57 -46 -69
-95 -32 -169 -136 -169 -240 0 -101 75 -210 164 -240 l36 -12 0 -257 0 -258
-38 -7 c-54 -8 -115 -56 -141 -108 -21 -44 -21 -50 -21 -757 0 -692 1 -713 20
-751 48 -95 104 -119 268 -120 l122 0 0 -42 c0 -55 26 -107 69 -135 33 -22 43
-23 236 -23 193 0 203 1 236 23 73 49 69 -19 69 1053 l0 961 -22 33 c-50 73
-57 75 -282 75 l-203 0 -36 -28 c-47 -36 -67 -75 -67 -132 l0 -45 -50 0 -50 0
0 259 0 259 34 12 c18 6 52 27 75 46 140 120 113 335 -51 418 l-57 28 5 47
c11 90 45 237 75 331 30 94 143 334 177 378 l18 23 74 -43 c71 -41 78 -43 155
-43 98 1 112 8 230 115 220 198 466 325 765 392 97 21 127 23 390 23 259 0
294 -2 387 -23 298 -65 554 -196 768 -393 113 -103 153 -122 249 -117 64 3 80
8 142 45 l69 43 17 -23 c34 -43 147 -284 177 -377 33 -104 67 -258 73 -332 l3
-47 -55 -28 c-162 -83 -188 -298 -49 -417 23 -19 57 -40 75 -46 l34 -12 0
-259 0 -259 -50 0 -50 0 0 49 c0 53 -25 99 -73 135 -27 20 -41 21 -232 21
-227 0 -233 -2 -282 -75 l-23 -33 0 -966 c0 -946 0 -967 20 -999 41 -67 62
-72 286 -72 192 0 203 1 235 23 43 28 69 80 69 135 l0 42 124 0 c116 0 127 2
177 28 43 22 59 38 81 81 l28 53 0 711 c0 705 0 711 -21 755 -26 52 -87 100
-141 108 l-38 7 0 258 0 257 34 12 c90 29 166 139 166 240 0 104 -74 208 -169
240 -38 12 -40 15 -46 64 -55 420 -225 773 -511 1060 -251 251 -558 417 -919
497 -93 20 -130 22 -515 25 -228 1 -444 -2 -480 -6z m985 -123 c315 -69 584
-207 810 -418 70 -66 195 -206 195 -220 0 -4 -26 -24 -57 -43 -44 -28 -68 -36
-103 -36 -54 0 -70 10 -186 113 -275 245 -619 392 -994 426 -560 52 -1042 -94
-1416 -428 -100 -89 -136 -111 -184 -111 -35 0 -150 56 -157 76 -2 6 25 44 61
85 246 289 592 489 963 558 157 29 144 29 563 26 373 -2 389 -3 505 -28z
m-2415 -1626 c38 -20 80 -89 80 -130 0 -14 -9 -44 -19 -67 -54 -118 -230 -112
-276 10 -52 135 88 256 215 187z m3887 2 c67 -32 97 -114 68 -189 -46 -122
-222 -128 -276 -10 -25 54 -24 84 4 136 39 74 126 101 204 63z m-3307 -822 c7
-13 10 -329 10 -955 0 -836 -2 -936 -16 -950 -23 -24 -355 -24 -378 0 -14 14
-16 114 -16 950 0 626 3 942 10 955 10 18 23 19 195 19 172 0 185 -1 195 -19z
m2970 0 c7 -13 10 -329 10 -955 0 -836 -2 -936 -16 -950 -23 -24 -355 -24
-378 0 -14 14 -16 114 -16 950 0 626 3 942 10 955 10 18 23 19 195 19 172 0
185 -1 195 -19z m-3470 -951 l0 -770 -107 0 c-120 0 -168 15 -190 60 -10 20
-12 177 -10 721 2 681 2 697 22 719 31 34 51 39 173 39 l112 1 0 -770z m3857
737 l28 -27 2 -698 c2 -545 0 -702 -10 -722 -22 -45 -70 -60 -189 -60 l-108 0
0 771 0 771 125 -4 c121 -3 125 -4 152 -31z"/>
<path d="M2843 2400 l-23 -9 0 -1054 c0 -806 3 -1056 12 -1065 19 -19 66 -15
78 7 7 13 10 361 10 1055 0 1023 0 1036 -20 1056 -22 22 -25 23 -57 10z"/>
<path d="M2532 1984 l-22 -15 0 -638 c0 -482 3 -640 12 -649 15 -15 61 -15 76
0 9 9 12 167 12 649 l0 638 -22 15 c-12 9 -25 16 -28 16 -3 0 -16 -7 -28 -16z"/>
<path d="M1910 1880 c-13 -8 -15 -81 -18 -536 -3 -574 -3 -574 53 -574 55 0
55 -2 55 563 0 338 -4 525 -10 538 -11 20 -54 26 -80 9z"/>
<path d="M3130 1871 c-6 -13 -10 -200 -10 -538 0 -565 0 -563 55 -563 56 0 56
0 53 574 -3 575 0 546 -60 546 -17 0 -31 -7 -38 -19z"/>
<path d="M2217 1672 c-15 -17 -17 -55 -17 -340 0 -309 1 -323 20 -342 24 -24
43 -25 64 -4 14 13 16 59 16 349 0 320 -1 335 -19 345 -28 15 -46 12 -64 -8z"/>
<path d="M3446 1674 c-14 -13 -16 -59 -16 -344 0 -328 0 -329 22 -344 28 -20
43 -20 62 0 14 13 16 59 16 349 0 320 -1 335 -19 345 -27 14 -47 13 -65 -6z"/>
<path d="M1606 1574 c-14 -13 -16 -49 -16 -243 0 -243 2 -251 50 -251 48 0 50
8 50 251 0 224 0 228 -22 243 -28 20 -43 20 -62 0z"/>
</g>
</svg>
